<?xml version="1.0" standalone="no"?>
<!DOCTYPE svg PUBLIC "-//W3C//DTD SVG 20010904//EN"
 "http://www.w3.org/TR/2001/REC-SVG-20010904/DTD/svg10.dtd">
<svg version="1.0" xmlns="http://www.w3.org/2000/svg"
 width="400.000000pt" height="275.000000pt" viewBox="0 0 400.000000 275.000000"
 preserveAspectRatio="xMidYMid meet">

<g transform="translate(0.000000,275.000000) scale(0.100000,-0.100000)"
fill="#000000" stroke="none">
<path d="M624 2729 c-37 -11 -142 -116 -350 -354 -218 -250 -276 -323 -266
-341 22 -40 1684 -1738 1855 -1895 86 -79 125 -109 144 -109 32 0 214 179
1087 1070 944 965 896 914 896 943 0 18 -25 56 -77 119 -112 136 -336 389
-429 488 l-82 85 -1373 2 c-796 1 -1387 -2 -1405 -8z m780 -128 c3 -4 -108
-117 -247 -249 l-252 -241 -295 -1 c-289 0 -344 4 -338 21 2 5 95 115 208 244
l205 235 357 0 c196 0 359 -4 362 -9z m1204 -232 c136 -132 249 -245 250 -250
4 -10 -1659 -11 -1696 -1 -21 6 4 33 230 249 l253 242 358 1 359 0 246 -241z
m921 -1 l212 -243 -43 -7 c-24 -3 -167 -7 -320 -7 l-276 -1 -229 219 c-125
120 -241 233 -257 250 l-30 31 366 0 365 0 212 -242z m-2591 -473 c280 -520
682 -1274 688 -1289 4 -11 -177 167 -402 395 -514 519 -944 962 -944 972 0 4
138 6 307 5 l308 -3 43 -80z m1979 68 c-8 -31 -904 -1677 -913 -1680 -10 -3
-58 84 -561 1016 -194 360 -350 657 -347 660 11 11 362 17 1093 19 694 2 733
1 728 -15z m803 8 c0 -15 -1340 -1385 -1347 -1377 -3 2 162 312 365 688 l369
683 104 6 c177 9 509 9 509 0z"/>
</g>
</svg>
