<?xml version="1.0" encoding="UTF-8"?>
<svg width="320px" height="52px" viewBox="0 0 320 52" version="1.1" xmlns="http://www.w3.org/2000/svg" xmlns:xlink="http://www.w3.org/1999/xlink">
    <!-- Generator: Sketch 50.2 (55047) - http://www.bohemiancoding.com/sketch -->
    <title>Group 32</title>
    <desc>Created with Sketch.</desc>
    <defs></defs>
    <g id="Sprint-1-new-nav" stroke="none" stroke-width="1" fill="none" fill-rule="evenodd">
        <g id="CC-Single-Product" transform="translate(-785.000000, -68.000000)" fill="#212322">
            <g id="Group-32" transform="translate(785.000000, 68.000000)">
                <g id="Group-30">
                    <path d="M35.3294066,39.3264054 C35.8350769,39.3854324 36.3512967,39.4174054 36.8801758,39.4174054 C37.4526593,39.4174054 38.0131868,39.3791081 38.5628132,39.3116486 C38.6289231,38.7551081 38.6672527,38.1883784 38.6672527,37.6082973 C38.6658295,37.1618091 38.6427108,36.7156532 38.597978,36.2714054 L38.6025495,36.2707027 C38.5951648,36.1941081 38.5867253,36.1206757 38.5793407,36.0532162 C38.5790012,36.0481793 38.5786496,36.0431433 38.5782857,36.0381081 L38.5775824,36.0381081 L38.5782857,36.0381081 L38.5754725,36.0198378 C38.5533187,35.8244865 38.5332747,35.685 38.5332747,35.685 L38.5269451,35.6853514 C37.9344176,31.4596486 35.4380659,28.093 32.2911648,26.0994324 L27.6353407,27.5206486 C30.919033,28.449973 34.6915165,31.4874054 35.3709011,36.0792162 L35.3701978,36.0795676 C30.8346374,35.391973 27.8326154,31.5731351 26.9148132,28.2493514 L25.511033,32.9623784 C27.5351209,36.2366216 30.9897143,38.8218649 35.3294066,39.3264054 M15.4767473,36.0795676 C16.1557802,31.4884595 19.9282637,28.4496216 23.211956,27.5213514 L18.5557802,26.1001351 C15.4092308,28.0940541 12.9118242,31.4603514 12.32,35.6860541 L12.3136703,35.6857027 C12.3136703,35.6857027 12.293978,35.8255405 12.2714725,36.0205405 L12.269011,36.0388108 L12.2693626,36.0388108 L12.2693626,36.0391622 L12.269011,36.0388108 L12.2676044,36.0539189 C12.2602198,36.121027 12.2521319,36.1948108 12.2447473,36.2717568 L12.2493187,36.2721081 C12.2043389,36.7163436 12.1809854,37.1625001 12.1793407,37.609 C12.1793407,38.1876757 12.2176703,38.7558108 12.2837802,39.3123514 C12.8337582,39.3794595 13.3942857,39.4181081 13.9664176,39.4181081 C14.4952967,39.4181081 15.0125714,39.3857838 15.5175385,39.3271081 L15.5175385,39.3267568 C19.8572308,38.8225676 23.3118242,36.2373243 25.3362637,32.9637838 L23.9324835,28.2511081 C23.013978,31.5731351 20.013011,35.391973 15.4767473,36.0795676 M28.7985934,8.69383784 C29.2224453,7.94859613 29.7426678,7.26236428 30.3458462,6.65283784 C34.373978,2.57540541 40.6287473,2.6917027 44.581978,6.62121622 L44.596044,6.63597297 C48.4785934,10.6371622 48.5928791,16.9681622 44.5650989,21.0455946 C43.9630953,21.6563304 43.2825651,22.1844626 42.5413626,22.6161351 C43.0322717,22.9492825 43.4895761,23.3293613 43.9068132,23.751 C44.2679654,24.1173229 44.5975717,24.5134097 44.8921319,24.9350541 C45.5981208,24.4503974 46.2563282,23.8996878 46.8578462,23.2903784 C52.1916484,17.8915135 52.0611868,9.53040541 46.9471648,4.25943243 L46.9457582,4.25802703 L46.9454066,4.25767568 L46.9450549,4.25767568 L46.9306374,4.24291892 L46.9302857,4.24256757 L46.9288791,4.24116216 C41.7213187,-0.935297297 33.4614505,-1.06740541 28.1276484,4.33145946 C27.522601,4.9434843 26.977308,5.61173058 26.4991648,6.32713514 C26.9285924,6.63200753 27.3308505,6.9733854 27.7014505,7.34745946 C28.1088672,7.76065497 28.4762202,8.21145876 28.7985934,8.69383784 M3.98663736,23.2910811 C4.58794288,23.9004829 5.24604277,24.451201 5.952,24.9357568 C6.24670131,24.5141209 6.57642361,24.1180361 6.93767033,23.7517027 C7.35457228,23.3298379 7.81178308,22.9497391 8.30276923,22.6168378 C7.56158537,22.1852949 6.88115504,21.6571484 6.27938462,21.0462973 C2.25125275,16.9688649 2.36624176,10.6375135 6.24808791,6.63667568 L6.26250549,6.62191892 C10.2157363,2.69240541 16.4701538,2.57610811 20.4982857,6.65354054 C21.1016746,7.26305593 21.6221312,7.94928462 22.0462418,8.69454054 C22.36833,8.21236333 22.735453,7.76178815 23.1426813,7.34886486 C23.513248,6.97461854 23.9156383,6.63322829 24.3453187,6.32854054 C23.8671607,5.61304944 23.3217422,4.94479379 22.7164835,4.33286486 C17.3826813,-1.066 9.12281319,-0.933891892 3.91525275,4.24256757 L3.9149011,4.24256757 L3.91384615,4.24362162 L3.91349451,4.24432432 L3.91314286,4.24432432 L3.89872527,4.25908108 L3.89837363,4.25943243 L3.89696703,4.26083784 C-1.2167033,9.53110811 -1.34716484,17.8922162 3.98663736,23.2910811" id="Shape" fill-rule="nonzero"></path>
                    <path d="M46.8585495,28.7331622 C46.2572439,28.1237604 45.599144,27.5730422 44.8931868,27.0884865 C44.5984855,27.5101223 44.2687632,27.9062071 43.9075165,28.2725405 C43.4906616,28.6943178 43.0335763,29.0744102 42.5427692,29.4074054 C43.2838341,29.8391244 43.9642421,30.3672536 44.5661538,30.9779459 C48.5942857,35.0553784 48.4792967,41.3863784 44.5970989,45.3879189 L44.5826813,45.4026757 C40.6294505,49.3325405 34.375033,49.4488378 30.3469011,45.3710541 C29.7433446,44.7616395 29.222978,44.0752554 28.7992967,43.3297027 C28.4773129,43.8118596 28.1103086,44.2624336 27.7032088,44.6753784 C27.3324968,45.049362 26.9301195,45.3906235 26.5005714,45.6953514 C26.9783578,46.4111279 27.5236767,47.0795235 28.1290549,47.6913784 C33.4628571,53.0898919 41.7230769,52.9577838 46.9302857,47.7816757 L46.9316923,47.7806216 L46.932044,47.7802703 L46.9323956,47.7799189 L46.9468132,47.7651622 L46.9471648,47.7648108 L46.9485714,47.7634054 C52.0618901,42.4931351 52.1923516,34.1323784 46.8585495,28.7331622 Z" id="Path"></path>
                    <path d="M22.0462418,43.3304054 C21.6221771,44.0757058 21.101847,44.7620418 20.4986374,45.3717568 C16.4705055,49.4488378 10.2157363,49.3325405 6.26250549,45.4033784 L6.24808791,45.3886216 C2.36624176,41.3874324 2.2516044,35.0567838 6.27973626,30.979 C6.88148989,30.3681776 7.56178377,29.8399271 8.30276923,29.4081081 C7.81210782,29.0747758 7.35493739,28.6947106 6.93767033,28.2732432 C6.57651811,27.9069203 6.2469118,27.5108336 5.95235165,27.0891892 C5.24636268,27.5738459 4.58815532,28.1245554 3.98663736,28.7338649 C-1.34716484,34.1327297 -1.2167033,42.4938378 3.89731868,47.7648108 L3.89872527,47.7662162 L3.89907692,47.7665676 L3.91349451,47.7813243 L3.91384615,47.7813243 L3.9141978,47.7816757 L3.9156044,47.7830811 C9.12351648,52.9595405 17.383033,53.0916486 22.7168352,47.6927838 C23.3221626,47.0807897 23.8675857,46.4124106 24.3456703,45.6967568 C23.916065,45.3921026 23.5136816,45.0508358 23.143033,44.6767838 C22.735784,44.2635318 22.3685528,43.812733 22.0462418,43.3304054 Z" id="Path"></path>
                    <path d="M35.3698462,15.9453784 C34.6908132,20.5371892 30.9183297,23.5753243 27.6346374,24.5039459 L32.2908132,25.9255135 C35.4373626,23.9312432 37.9347692,20.5652973 38.5262418,16.3392432 L38.5329231,16.3395946 C38.5329231,16.3395946 38.5526154,16.1994054 38.5751209,16.0040541 L38.5775824,15.9864865 L38.5772308,15.9864865 L38.5775824,15.9868378 L38.578989,15.9717297 C38.5863736,15.9039189 38.5944615,15.8304865 38.6018462,15.7538919 L38.5969231,15.7535405 C38.6394725,15.3157568 38.6669011,14.8712973 38.6669011,14.4166486 C38.6657503,13.8473034 38.6308761,13.2785253 38.5624615,12.7132973 C38.0042501,12.6439604 37.4423316,12.6086428 36.8798242,12.6075405 C36.3509451,12.6075405 35.8336703,12.6398649 35.3287033,12.6985405 L35.3287033,12.6988919 C30.989011,13.2030811 27.5344176,15.7883243 25.509978,19.0625676 L26.9137582,23.7755946 C27.8322637,20.4514595 30.8335824,16.632973 35.3698462,15.9453784 Z" id="Path"></path>
                    <path d="M15.5171868,12.6985405 C14.4426664,12.5723824 13.3567804,12.5772196 12.2834286,12.7129459 C12.2150254,13.2781749 12.1801513,13.8469524 12.178989,14.4162973 C12.178989,14.8709459 12.2060659,15.3154054 12.2486154,15.7531892 L12.2443956,15.7538919 C12.2517802,15.8301351 12.2598681,15.9035676 12.2672527,15.9713784 L12.2683077,15.9864865 L12.269011,15.9864865 L12.2683077,15.9864865 L12.2711209,16.0044054 C12.2936264,16.1994054 12.312967,16.3395946 12.312967,16.3395946 L12.3196484,16.3392432 C12.9118242,20.5649459 15.4088791,23.9315946 18.5554286,25.9251622 L23.2112527,24.5039459 C19.9279121,23.5746216 16.1554286,20.5371892 15.4756923,15.9453784 L15.4763956,15.945027 C20.0123077,16.6326216 23.013978,20.4514595 23.9317802,23.7752432 L25.3355604,19.0622162 C23.3114725,15.7886757 19.8565275,13.2027297 15.5171868,12.6985405 Z" id="Path"></path>
                </g>
                <g id="Group-31" transform="translate(68.571429, 14.405405)" fill-rule="nonzero">
                    <path d="M61.4385934,8.06843243 L61.4385934,4.96108108 C61.4385934,1.9882973 60.0365714,0.254378378 56.4933626,0.254378378 L51.4482637,0.254378378 L51.4482637,22.8937027 L54.3859341,22.8937027 L54.3859341,12.0067297 L58.9682637,22.8937027 L62.1070769,22.8937027 L57.6650549,12.5070541 C60.3365275,12.1732703 61.4385934,10.6747568 61.4385934,8.06843243 Z M54.3859341,10.5408919 L54.3859341,2.65551351 L56.1592967,2.65551351 C57.7645714,2.65551351 58.5012747,3.39089189 58.5012747,4.86059459 L58.5012747,8.30243243 C58.5012747,9.73945946 57.7645714,10.5408919 56.1592967,10.5408919 L54.3859341,10.5408919 Z M70.784,0.255081081 L67.8463297,0.255081081 L67.8463297,22.8937027 L75.8305055,22.8937027 L75.8305055,20.4932703 L70.784,20.4932703 L70.784,0.255081081 Z M81.6879121,22.8940541 L90.4077363,22.8940541 L90.4077363,20.4936216 L84.6252308,20.4936216 L84.6252308,12.5741622 L88.8035165,12.5741622 L88.8035165,10.2074595 L84.6252308,10.2074595 L84.6252308,2.65551351 L90.4077363,2.65551351 L90.4077363,0.255081081 L81.6879121,0.255081081 L81.6879121,22.8940541 Z M243.529143,0.255081081 L238.183385,0.255081081 L238.183385,22.8944054 L243.529143,22.8944054 C247.506989,22.8944054 248.908659,20.3270811 248.908659,17.0205135 L248.908659,6.13002703 C248.908659,2.78902703 247.506989,0.255081081 243.529143,0.255081081 Z M245.970989,17.5204865 C245.970989,19.2238378 245.234286,20.4936216 243.161319,20.4936216 L241.119648,20.4936216 L241.119648,2.65516216 L243.161319,2.65516216 C245.234637,2.65516216 245.970989,3.92494595 245.970989,5.59491892 L245.970989,17.5204865 Z M5.72448352,0.0214324324 C1.88061538,0.0214324324 0.31156044,2.55572973 0.31156044,5.89637838 L0.31156044,17.2538108 C0.31156044,20.5607297 1.88061538,23.1284054 5.72448352,23.1284054 C9.60140659,23.1284054 10.802989,20.794027 10.802989,17.6887838 L10.802989,13.813027 L8.09986813,13.813027 L8.09986813,17.8890541 C8.09986813,19.5593784 7.59806593,20.6949459 5.75789011,20.6949459 C3.95147253,20.6949459 3.24887912,19.3924865 3.24887912,17.6887838 L3.24887912,5.46210811 C3.24887912,3.75840541 3.95147253,2.45594595 5.75789011,2.45594595 C7.59806593,2.45594595 8.06646154,3.49067568 8.06646154,5.26113514 L8.06646154,8.13378378 L10.802989,8.13378378 L10.802989,5.46210811 C10.802989,2.22159459 9.73503297,0.0214324324 5.72448352,0.0214324324 Z M37.7898901,0.255081081 L33.4125714,22.8947568 L36.2190769,22.8947568 L37.0549451,18.1525676 L41.765978,18.1525676 L42.6349011,22.8947568 L45.6418462,22.8947568 L41.2311209,0.255081081 L37.7898901,0.255081081 Z M37.4892308,15.7514324 L39.3937582,5.09318919 L39.4271648,5.09318919 L41.3313407,15.7514324 L37.4892308,15.7514324 Z M208.126593,0.255081081 L203.748923,22.8947568 L206.555429,22.8947568 L207.390945,18.1525676 L212.101626,18.1525676 L212.970901,22.8947568 L215.978549,22.8947568 L211.567473,0.255081081 L208.126593,0.255081081 Z M207.825934,15.7514324 L209.730462,5.09318919 L209.763868,5.09318919 L211.668396,15.7514324 L207.825934,15.7514324 Z M24.6354286,10.1737297 L19.9180659,10.1737297 L19.9180659,0.255432432 L16.9810989,0.255432432 L16.9810989,22.8937027 L19.9180659,22.8937027 L19.9180659,12.5741622 L24.6354286,12.5741622 L24.6354286,22.8937027 L27.6058022,22.8937027 L27.6058022,0.255432432 L24.6354286,0.255432432 L24.6354286,10.1737297 Z M179.838593,0.255081081 L176.901626,0.255081081 L176.901626,22.8937027 L184.886505,22.8937027 L184.886505,20.4932703 L179.838593,20.4932703 L179.838593,0.255081081 Z M165.234286,0.0214324324 C161.423121,0.0214324324 159.754549,2.55608108 159.754549,5.89637838 L159.754549,17.2541622 C159.754549,20.5607297 161.423121,23.1284054 165.234286,23.1284054 C169.111912,23.1284054 170.747429,20.5607297 170.747429,17.2541622 L170.747429,5.89567568 C170.747077,2.55537838 169.111912,0.0214324324 165.234286,0.0214324324 Z M167.809758,17.6877297 C167.809758,19.3921351 167.040352,20.6945946 165.234286,20.6945946 C163.461275,20.6945946 162.69222,19.3921351 162.69222,17.6877297 L162.69222,5.46140541 C162.69222,3.7577027 163.461626,2.45524324 165.234286,2.45524324 C167.041407,2.45524324 167.809758,3.7577027 167.809758,5.46140541 L167.809758,17.6877297 Z M194.324396,17.6181622 L194.291341,17.6181622 L191.216879,0.25472973 L188.242989,0.25472973 L192.620659,22.8940541 L195.861802,22.8940541 L200.205363,0.25472973 L197.431912,0.25472973 L194.324396,17.6181622 Z M231.775297,8.06843243 L231.775297,4.96108108 C231.775297,1.9882973 230.372923,0.254378378 226.830066,0.254378378 L221.785319,0.254378378 L221.785319,22.8937027 L224.722286,22.8937027 L224.722286,12.0067297 L229.304967,22.8937027 L232.44378,22.8937027 L228.001407,12.5070541 C230.673934,12.1732703 231.775297,10.6747568 231.775297,8.06843243 Z M224.722286,10.5408919 L224.722286,2.65551351 L226.495648,2.65551351 C228.101978,2.65551351 228.837978,3.39089189 228.837978,4.86059459 L228.837978,8.30243243 C228.837978,9.73945946 228.101978,10.5408919 226.495648,10.5408919 L224.722286,10.5408919 Z M148.618901,0.0214324324 C144.77433,0.0214324324 143.205275,2.55572973 143.205275,5.89637838 L143.205275,17.2538108 C143.205275,20.5607297 144.77433,23.1284054 148.618901,23.1284054 C152.495473,23.1284054 153.697055,20.794027 153.697055,17.6887838 L153.697055,13.813027 L150.993582,13.813027 L150.993582,17.8890541 C150.993582,19.5593784 150.491077,20.6949459 148.651956,20.6949459 C146.844835,20.6949459 146.142593,19.3924865 146.142593,17.6887838 L146.142593,5.46210811 C146.142593,3.75840541 146.844835,2.45594595 148.651956,2.45594595 C150.491077,2.45594595 150.959824,3.49067568 150.959824,5.26113514 L150.959824,8.13378378 L153.696703,8.13378378 L153.696703,5.46210811 C153.697055,2.22159459 152.629099,0.0214324324 148.618901,0.0214324324 Z M101.175912,8.83508108 C99.8712967,7.566 99.0684835,6.73083784 99.0684835,5.29381081 L99.0684835,4.65891892 C99.0684835,3.15618919 99.9718681,2.38708108 101.343648,2.38708108 C102.849055,2.38708108 103.618462,3.12281081 103.618462,4.72567568 L103.618462,6.96378378 L106.321934,6.96378378 L106.321934,4.82581081 C106.321934,1.72091892 104.820396,0.0203783784 101.310242,0.0203783784 C97.9674725,0.0203783784 96.2981978,1.95386486 96.2981978,4.6922973 L96.2981978,5.49372973 C96.2981978,7.96513514 97.300044,9.23421622 99.4366593,11.3398649 L101.711824,13.577973 C103.117011,14.9138108 103.685978,15.7493243 103.685978,17.2520541 L103.685978,18.2874865 C103.685978,19.7238108 102.983385,20.7592432 101.410813,20.7592432 C99.7376703,20.7592432 99.0016703,19.8242973 99.0016703,18.2874865 L99.0016703,14.9805676 L96.2317363,14.9805676 L96.2317363,18.2210811 C96.2317363,21.093027 97.7666813,23.127 101.377055,23.127 C104.987077,23.127 106.589538,20.9932432 106.589538,18.1209459 L106.589538,16.9516486 C106.589538,14.4795405 105.587341,13.2438378 103.551297,11.1733243 L101.175912,8.83508108 Z M129.88167,10.0521622 L127.373011,10.0521622 L127.373011,14.4141892 C124.274286,10.3501081 123.312879,8.61091892 123.312879,8.61091892 C122.343033,6.85943243 122.082462,6.47435135 122.082462,5.0447027 L122.082462,4.41262162 C122.082462,2.91621622 123.221451,2.37689189 124.586901,2.37689189 C126.085626,2.37689189 126.667956,3.10840541 126.667956,4.70459459 L126.667956,6.93216216 L129.358769,6.93216216 L129.358769,4.80402703 C129.358769,2.10283784 128.047121,0.0207297297 124.553143,0.0207297297 C121.225846,0.0207297297 119.364923,1.72091892 119.364923,4.4467027 L119.364923,5.24462162 C119.524571,7.07340541 120.071736,8.18859459 120.882989,9.49175676 C119.629363,10.0261622 119.048791,11.0742432 119.048791,12.6588378 L119.048791,18.1416757 C119.048791,21.333 121.189275,23.1255946 124.449758,23.1255946 C126.905319,23.1255946 128.536264,22.3153784 129.325363,20.7026757 L131.021011,22.8912432 L134.244571,22.8912432 C132.765324,21.1541338 131.310529,19.3963844 129.880615,17.6185135 L129.88167,10.0521622 Z M124.598857,20.703027 C123.133538,20.703027 121.56378,19.8383514 121.496264,18.1086486 L121.496264,12.4944054 C121.535297,12.142 121.962549,11.8739189 122.481582,11.8746216 L127.363868,18.1715405 C127.315341,19.897027 126.036396,20.703027 124.598857,20.703027 Z M249.909802,1.25081081 L250.023736,1.25081081 C250.157011,1.25081081 250.265319,1.20654054 250.265319,1.09867568 C250.265319,1.00345946 250.195692,0.940216216 250.042725,0.940216216 C249.979429,0.940216216 249.935121,0.946891892 249.909802,0.952864865 L249.909802,1.25081081 Z M249.903121,1.84037838 L249.661187,1.84037838 L249.661187,0.800378378 C249.793369,0.777003221 249.927498,0.766413706 250.061714,0.768756757 C250.258637,0.768756757 250.347253,0.800378378 250.423209,0.844648649 C250.489865,0.90138271 250.527229,0.985219526 250.524835,1.07267568 C250.524835,1.18686486 250.435516,1.27575676 250.308923,1.31405405 L250.308923,1.3267027 C250.410549,1.36464865 250.467516,1.44054054 250.499516,1.58037838 C250.531165,1.73883784 250.550857,1.80278378 250.575473,1.84037838 L250.315956,1.84037838 C250.284308,1.80278378 250.264615,1.70721622 250.233319,1.5867027 C250.21433,1.47251351 250.151033,1.42156757 250.01811,1.42156757 L249.903824,1.42156757 L249.903121,1.84037838 Z M249.262418,1.29578378 C249.262418,1.75851351 249.605275,2.12637838 250.075077,2.12637838 C250.531868,2.12637838 250.868396,1.75851351 250.868396,1.30140541 C250.868396,0.839027027 250.531868,0.464135135 250.069099,0.464135135 C249.60422,0.464135135 249.262418,0.839027027 249.262418,1.29578378 Z M251.134593,1.29578378 C251.134593,1.8857027 250.671121,2.34808108 250.068396,2.34808108 C249.471648,2.34808108 248.995868,1.8857027 248.995868,1.29578378 C248.995868,0.718162162 249.472,0.255432432 250.068396,0.255432432 C250.671121,0.255432432 251.134593,0.718162162 251.134593,1.29578378 Z" id="Shape"></path>
                </g>
            </g>
        </g>
    </g>
</svg>