<svg xmlns="http://www.w3.org/2000/svg" width="316" height="24" viewBox="0 0 316 24">
  <metadata><?xpacket begin="﻿" id="W5M0MpCehiHzreSzNTczkc9d"?>
<x:xmpmeta xmlns:x="adobe:ns:meta/" x:xmptk="Adobe XMP Core 5.6-c142 79.160924, 2017/07/13-01:06:39        ">
   <rdf:RDF xmlns:rdf="http://www.w3.org/1999/02/22-rdf-syntax-ns#">
      <rdf:Description rdf:about=""/>
   </rdf:RDF>
</x:xmpmeta>
                                                                                                    
                                                                                                    
                                                                                                    
                                                                                                    
                                                                                                    
                                                                                                    
                                                                                                    
                                                                                                    
                                                                                                    
                                                                                                    
                                                                                                    
                                                                                                    
                                                                                                    
                                                                                                    
                                                                                                    
                                                                                                    
                                                                                                    
                                                                                                    
                                                                                                    
                                                                                                    
                           
<?xpacket end="w"?></metadata>
<defs>
    <style>
      .cls-1 {
        fill: #382e2c;
        fill-rule: evenodd;
      }
    </style>
  </defs>
  <path id="Fill_9" data-name="Fill 9" class="cls-1" d="M2508.03,74.784V75.62a2.85,2.85,0,0,1,2.47,1.559,4.408,4.408,0,0,1,.26,1.974v0.771l1.21,1.191a9.605,9.605,0,0,0,3.08,2.04v-4a4.73,4.73,0,0,1,.26-1.974,2.862,2.862,0,0,1,2.47-1.559V74.784h-9.75m-2.28,10.995c-4.17.126-6.6-2.687-6.68-5.854a4.15,4.15,0,0,1,2.5-3.905c0.11,0.146,1.63,1.51,1.68,1.558l6.48,6.319A5.961,5.961,0,0,1,2505.75,85.779Zm10.42-1.576c-2.01,0-3.24-1.137-4.59-2.278l-7.32-7.245c-1.36-1.236-2.49-2.361-2.49-3.869a3.734,3.734,0,0,1,3.54-3.581c1.05-.142,3.96.108,5.08,2.537l0.57,0s-0.54-4.767-6.09-4.726c-3.87.029-6.16,2.873-5.9,6.068a5.505,5.505,0,0,0,1.02,2.737,6.778,6.778,0,0,0-4.06,5.683l-0.03-.056a7.924,7.924,0,0,0,2.17,6.082,8.137,8.137,0,0,0,4.42,2.231,15.783,15.783,0,0,0,2.27.209,17.27,17.27,0,0,0,9.37-2.708,6.21,6.21,0,0,0,2.65-.5s0.54-.69.51-0.684a5.512,5.512,0,0,1-1.12.1h0Zm77.74,3.8h0a2.087,2.087,0,1,1,2.09-2.087A2.092,2.092,0,0,1,2593.91,88m-29.69-11.875c0,5.719,2.93,10.128,8.44,10.128,4.24,0,8.19-2.582,8.19-9.334,0-5.719-2.86-10.128-8.38-10.128C2568.24,66.791,2564.22,69.372,2564.22,76.125Zm8.19-11.081c8.41,0,14.2,4.012,14.2,11.24,0,6.077-4.05,11.717-13.95,11.717-8.01,0-14.2-3.694-14.2-11.24,0-6.156,4.08-11.717,13.95-11.717h0Zm-21.4,19.462a2.606,2.606,0,0,1-1.08,1.946c-1.87,1.311-5.86,1.549-7.61,1.549-6.07,0-14.11-2.741-14.11-11.478s8.07-11.478,14.11-11.478a26.823,26.823,0,0,1,7.61,1.35c0.54,0.2.48-.278,0.99-0.278,0.26,0,.29.676,0.29,3.575v3.1c0,0.635-.41.635-0.53,0.119-1.01-4.885-5.21-6.116-8.01-6.116-4.7,0-8.8,2.859-8.8,9.73,0,6.554,3.45,9.731,8.98,9.731,3.07,0,6.73-.834,8.81-6.474,0.21-.556.57-0.4,0.54,0.119l-1.19,4.607m-67.64-2.8-0.71,5.327c-0.18.968-.55,0.968-1.84,0.968h-17.27V87.342a2.61,2.61,0,0,0,2.3-1.317,5.975,5.975,0,0,0,.25-2.222V69.282a5.983,5.983,0,0,0-.25-2.222,2.609,2.609,0,0,0-2.3-1.316v-0.7h8.93v0.7a2.609,2.609,0,0,0-2.3,1.316,5.983,5.983,0,0,0-.25,2.222V82.487c0,3.045.63,3.7,3.3,3.7h3.97c2.85,0,4.72-.205,5.68-4.485h0.49m-30.25,0-0.81,5.327c-0.18.968-.45,0.968-1.74,0.968h-17.26V87.342a2.576,2.576,0,0,0,2.27-1.317,5.368,5.368,0,0,0,.25-1.892V69.281a6.473,6.473,0,0,0-.25-2.263,2.53,2.53,0,0,0-2.27-1.275v-0.7h18.86v5.6h-0.49c-0.37-3.7-1.69-3.785-4.55-3.785h-6.63c-0.37,0-.83.288-0.83,1.357v6.418c0,0.329.09,0.453,0.33,0.453h6.12a2.27,2.27,0,0,0,2.21-2.263h0.55v6.294h-0.55a2.242,2.242,0,0,0-2.21-2.263H2440c-0.27,0-.33.165-0.33,0.453V82.57c0,3.086.09,3.62,2.76,3.62h4.52c2.85,0,4.73-.205,5.68-4.485h0.49M2423.92,88h-9.39V87.342a2.879,2.879,0,0,0,2.42-1.317,5.713,5.713,0,0,0,.26-2.222V68.952a5.1,5.1,0,0,0-.26-1.893,2.784,2.784,0,0,0-2.42-1.316v-0.7h9.39v0.7a2.784,2.784,0,0,0-2.42,1.316,5.1,5.1,0,0,0-.26,1.893V83.8a5.918,5.918,0,0,0,.26,2.222,2.879,2.879,0,0,0,2.42,1.317V88m-29.14-13.007h-6.55c-0.26,0-.33-0.082-0.33-0.408V67.409a0.572,0.572,0,0,1,.56-0.653h6.32c2.75,0,3.73,2.12,3.73,4C2398.51,72.709,2397.44,74.993,2394.78,74.993Zm13.5,12.15c-4.31-.04-7.02-5.138-10.23-10.6a5.723,5.723,0,0,0,5.12-5.75c0-3.18-2.17-5.749-7.68-5.749h-14.33l0.01,0.671c0.76,0.11,1.95.182,2.42,1.287a5.858,5.858,0,0,1,.26,2.243V83.637a5.616,5.616,0,0,1-.26,2.2c-0.47,1.078-1.66,1.176-2.42,1.308l-0.01.649c1.2,0,8.27.041,9.43,0V87.143c-0.75-.132-1.95-0.222-2.43-1.3a5.818,5.818,0,0,1-.26-2.2V77.072a0.31,0.31,0,0,1,.36-0.368h3.79c1.3,0.041,1.69.53,3.73,3.955,2.6,4.322,4.57,7.34,10.51,7.34a11.229,11.229,0,0,0,1.99-.139V87.143h0Zm-45.06-.871h-4.37c-3.29-.041-3.42-0.411-3.42-3.621v-5.6c0-.288.07-0.411,0.26-0.452h8.17c2.99,0,4.37,2.427,4.37,4.732A4.636,4.636,0,0,1,2363.22,86.272Zm-7.79-18.719a0.744,0.744,0,0,1,.8-0.782h5.46c2.45,0,4.81.782,4.81,4.032,0,3.209-2.13,4.114-4.08,4.114h-6.67c-0.25-.041-0.32-0.165-0.32-0.494v-6.87ZM2348.83,88h14.36c3.86,0,9.63-.864,9.63-6.706a6.14,6.14,0,0,0-4.5-5.966,5.393,5.393,0,0,0,2.78-4.649c0-5.636-6.54-5.636-9.25-5.636h-13.02v0.7a2.646,2.646,0,0,1,2.36,1.275,6.177,6.177,0,0,1,.26,2.263V84.134a5.091,5.091,0,0,1-.26,1.892,2.691,2.691,0,0,1-2.36,1.317V88h0Zm-28.39-9.692,4.65-9.439,4.59,9.439h-9.24Zm20.05,9.018c-1.76,0-3.38-2.908-4.34-4.846l-8.59-17.437h-2.65l-8.27,16.425c-1.72,3.456-3.19,5.815-5.35,5.857V88h7.81V87.326c-1.56,0-1.85-.758-1.85-1.516a11.377,11.377,0,0,1,1.31-3.624l1.02-2.149h10.96l1.4,2.866a7.512,7.512,0,0,1,1.06,3.076,1.34,1.34,0,0,1-1.6,1.348V88h9.09V87.326h0Zm-34.42-10.537h-9.3v0.665a2.883,2.883,0,0,1,2.42,1.328,3.414,3.414,0,0,1,.25,1.682v2.189c0,3.187-2.55,3.52-5.38,3.52a10.2,10.2,0,0,1,0-20.346c3.69,0,7.77.622,8.82,6.02h0.55v-6.6s-0.15.524-1.47,0.083a24,24,0,0,0-7.9-1.329c-5.93,0-14.06,3.488-14.06,12,0,8.637,8.38,12,14.06,12,3.14,0,9.34-.779,9.34-2.075V80.464a3.532,3.532,0,0,1,.25-1.682,2.871,2.871,0,0,1,2.42-1.328V76.789" transform="translate(-2280 -64)"/>
</svg>
